<svg xmlns="http://www.w3.org/2000/svg" xmlns:xlink="http://www.w3.org/1999/xlink" viewBox="0 0 131.125 135.167" fill="#fff" fill-rule="evenodd" stroke="#000" stroke-linecap="round" stroke-linejoin="round"><use xlink:href="#A" x="1.042" y="2.083"/><symbol id="A" overflow="visible"><g stroke="none" fill-rule="nonzero"><path d="M45.216 72.327c.302 1.677 1.925 3.046 4.098 3.458l24.804 4.688c1.162.219 1.175 1.465.013 1.688l-24.833 4.692c-2.173.41-3.781 1.777-4.083 3.454l-6.571 36.435c-.181 1-2.098 1-2.279 0L29.789 90.3c-.302-1.677-1.912-3.042-4.083-3.454L.872 82.154c-1.162-.219-1.162-1.462 0-1.681l24.833-4.692c2.173-.41 2.442-2.379 2.744-4.056l5.527-29.358c.181-1 4.488-7.488 4.667-6.485l6.577 36.446z" fill="#fcea2b"/><path d="M38.852 126.742l3.296-32.09c-5.833-9.625-8.062-19.583-10.777-26.713l-2.823 4.417c-.281 1.677-1.775 3.042-3.792 3.452L1.699 80.496c-1.079.219-1.079 1.463 0 1.681l23.054 4.688c2.017.41 5.596 1.775 5.875 3.452l6.104 36.423c.167 1 1.948 1 2.117 0z" fill="#f1b31c"/><path d="M88.906 28.99c.219 1.208 1.392 2.2 2.958 2.496l17.917 3.386c.84.158.848 1.058.01 1.217l-17.933 3.388c-1.569.296-2.729 1.283-2.95 2.494l-4.75 26.319c-.131.723-1.515.723-1.667 0l-4.75-26.319c-.219-1.208-1.381-2.198-2.95-2.494l-17.933-3.388c-.84-.158-.84-1.056 0-1.215l17.937-3.39c1.569-.296 1.763-1.719 1.979-2.929L80.51 7.35c.131-.725 3.496-5.408 3.625-4.683l4.75 26.323z" fill="#fcea2b"/><path d="M84.887 68.292l1.802-23.177c-4.212-6.948-7.327-14.158-9.287-19.292l-.535 3.188c-.202 1.208-1.281 2.196-2.74 2.494L57.497 34.89c-.779.158-.779 1.056 0 1.215l16.65 3.385c1.458.296 4.621 1.283 4.823 2.494l4.408 26.306c.121.723 1.408.723 1.529 0z" fill="#f1b31c"/><path d="M110.167 90.721c.179.967 1.146 1.754 2.433 1.99l14.721 2.7c.688.125.698.844.008.971l-14.737 2.702c-1.292.237-2.246 1.021-2.425 1.989l-3.9 20.986c-.104.577-1.246.577-1.354 0l-3.902-20.988c-.179-.967-1.135-1.75-2.425-1.99l-14.737-2.702c-.687-.125-.687-.842 0-.969l14.74-2.702c1.292-.238 1.45-1.371 1.629-2.333l3.071-16.908c.104-.577 2.875-4.312 2.979-3.735l3.902 20.99z" fill="#fcea2b"/><path d="M106.731 122.059l2.196-18.479c-3.358-5.542-5.842-11.292-7.406-15.385l-.427 2.542c-.163.965-1.021 1.75-2.183 1.987l-13.279 2.702c-.621.125-.621.842 0 .969l13.277 2.7c1.162.235 2.021 1.021 2.188 1.987l4.417 20.979c.098.577 1.125.577 1.219 0z" fill="#f1b31c"/></g><path d="M33.331 55.438l4.462-23.25 6.313 37.671c.546 3.25 3.423 5.865 7.333 6.66l23.558 4.794-23.575 4.798c-3.9.792-6.771 3.408-7.319 6.658l-6.31 37.669-6.312-37.667c-.542-3.25-3.417-5.865-7.319-6.658l-23.573-4.8 23.575-4.798c3.9-.792 6.538-5.327 7.083-8.577m49.075-51.146L83.545 0l4.577 27.208c.417 2.348 2.473 4.235 5.298 4.792l16.994 3.479-17.027 3.465c-2.817.573-4.892 2.458-5.285 4.808L83.543 70.96l-4.558-27.204c-.417-2.348-2.469-4.235-5.285-4.808l-17.027-3.465 17.029-3.465c2.817-.573 4.721-3.848 5.115-6.196m25.031 55.171l2.569-13.392 3.635 21.696c.313 1.875 1.973 3.375 4.225 3.833l13.569 2.76-13.577 2.763c-2.246.458-3.902 1.962-4.215 3.833l-3.635 21.7-3.633-21.694c-.312-1.875-1.969-3.375-4.215-3.833l-13.577-2.762 13.579-2.763c2.246-.458 3.765-3.069 4.079-4.937" fill="none" stroke-width="4.167" stroke-miterlimit="10"/></symbol></svg>